<svg width="324" height="375" viewBox="0 0 324 375" fill="none" xmlns="http://www.w3.org/2000/svg">
<path d="M161.288 322.167C161.288 322.167 161.173 322.084 161.107 322.035C160.943 321.937 160.795 321.822 160.631 321.74C160.369 321.576 160.024 321.461 159.778 321.28C159.236 321.116 158.695 320.969 158.153 320.821C158.121 320.821 158.121 320.821 158.104 320.821C158.104 320.821 158.104 320.821 158.071 320.821C157.825 320.821 157.579 320.788 157.316 320.788C157.07 320.788 156.808 320.788 156.562 320.788C156.512 320.788 156.184 320.837 156.037 320.854C155.971 320.854 155.905 320.887 155.905 320.887C155.725 320.936 155.528 320.969 155.347 321.034C155.068 321.116 154.806 321.215 154.527 321.297C153.756 321.543 154.691 321.215 154.724 321.215C154.412 321.149 153.542 321.855 153.247 322.052C153.148 322.117 152.558 322.692 152.984 322.232C153.427 321.756 152.82 322.396 152.755 322.462C152.64 322.577 152.18 322.938 151.934 323.233C151.918 323.282 151.901 323.348 151.836 323.447C151.704 323.643 151.573 323.84 151.458 324.037C151.31 324.283 151.196 324.546 151.048 324.776C151.048 324.809 151.031 324.809 151.015 324.825C150.867 325.284 150.72 325.744 150.605 326.203C150.572 326.318 150.555 326.564 150.523 326.696V326.86C150.49 327.303 150.49 327.762 150.523 328.222C150.523 328.304 150.523 328.337 150.523 328.386C150.523 328.419 150.523 328.419 150.523 328.452C150.572 328.649 150.605 328.829 150.654 329.026C150.753 329.403 150.835 330.109 151.097 330.388C150.867 329.846 150.851 329.781 151.031 330.191C151.081 330.273 151.113 330.355 151.163 330.437C151.245 330.601 151.343 330.765 151.442 330.93C151.589 331.176 151.754 331.405 151.901 331.635C151.983 331.766 152.016 331.816 152 331.832C152.295 332.144 152.787 332.521 152.952 332.685C152.968 332.702 152.968 332.718 152.984 332.735C153.148 332.833 153.296 332.964 153.46 333.063C153.624 333.161 153.985 333.44 154.297 333.604C154.33 333.604 154.396 333.604 154.51 333.654C154.789 333.736 155.052 333.834 155.331 333.916C155.61 333.998 155.889 334.047 156.184 334.113C156.66 334.129 157.136 334.179 157.612 334.146C157.743 334.146 157.94 334.146 158.121 334.129C158.17 334.113 158.219 334.097 158.285 334.08C158.761 333.982 159.22 333.834 159.68 333.686C159.729 333.67 159.762 333.67 159.794 333.654C159.827 333.637 159.827 333.621 159.877 333.604C160.041 333.506 160.221 333.424 160.385 333.342C160.664 333.194 161.091 332.981 161.386 332.751C161.452 332.669 161.534 332.554 161.599 332.488C161.731 332.357 161.878 332.226 162.01 332.095C162.157 331.947 162.305 331.717 162.469 331.586C162.765 331.126 163.044 330.667 163.306 330.175C163.355 330.093 163.388 330.027 163.421 329.978C163.47 329.814 163.503 329.666 163.536 329.551C163.585 329.371 163.733 328.993 163.831 328.665C163.831 328.632 163.831 328.55 163.831 328.353C163.831 328.058 163.864 327.746 163.864 327.451C163.864 327.254 163.897 326.925 163.864 326.646C163.848 326.614 163.815 326.564 163.799 326.482C163.651 325.908 163.503 325.366 163.339 324.809C163.339 324.792 163.323 324.776 163.306 324.759C163.158 324.513 163.044 324.251 162.896 324.021C162.748 323.775 162.584 323.545 162.436 323.315C162.436 323.315 162.404 323.282 162.387 323.266C162.059 322.938 161.731 322.61 161.386 322.281C161.337 322.232 161.321 322.216 161.288 322.199V322.167Z" fill="#BDE0FF"/>
<path d="M210.203 354.051C210.252 353.854 210.285 353.674 210.236 353.575C210.236 353.575 210.22 353.92 210.203 354.051Z" fill="#BDE0FF"/>
<path d="M206.155 346.699C205.613 346.535 205.072 346.388 204.53 346.24C204.498 346.24 204.497 346.24 204.481 346.24C204.481 346.24 204.481 346.24 204.448 346.24C204.202 346.24 203.956 346.207 203.693 346.207C203.447 346.207 203.185 346.207 202.939 346.207C202.889 346.207 202.561 346.256 202.414 346.273C202.348 346.273 202.282 346.306 202.282 346.306C202.102 346.355 201.905 346.388 201.724 346.453C201.445 346.535 201.183 346.634 200.904 346.716C200.133 346.962 201.068 346.634 201.101 346.634C200.789 346.568 199.919 347.274 199.624 347.471C199.525 347.536 198.934 348.111 199.361 347.651C199.804 347.175 199.197 347.815 199.132 347.881C199.017 347.996 198.557 348.357 198.311 348.652C198.295 348.701 198.262 348.767 198.213 348.865C198.081 349.062 197.95 349.259 197.835 349.456C197.687 349.702 197.573 349.965 197.425 350.195C197.425 350.228 197.408 350.228 197.392 350.244C197.244 350.703 197.097 351.163 196.982 351.622C196.949 351.737 196.932 351.983 196.9 352.115V352.279C196.867 352.722 196.867 353.181 196.9 353.641C196.9 353.723 196.9 353.756 196.9 353.805C196.9 353.838 196.9 353.838 196.9 353.871C196.949 354.067 196.982 354.248 197.031 354.445C197.129 354.822 197.212 355.528 197.474 355.807C197.244 355.265 197.228 355.2 197.408 355.61C197.458 355.692 197.49 355.774 197.54 355.856C197.622 356.02 197.72 356.184 197.819 356.348C197.966 356.595 198.131 356.824 198.278 357.054C198.36 357.185 198.393 357.235 198.377 357.251C198.672 357.563 199.164 357.94 199.328 358.104C199.345 358.121 199.345 358.137 199.361 358.154C199.525 358.252 199.673 358.383 199.837 358.482C200.001 358.58 200.362 358.859 200.674 359.023C200.707 359.023 200.772 359.023 200.887 359.073C201.166 359.155 201.429 359.253 201.708 359.335C201.987 359.417 202.266 359.466 202.561 359.532C203.037 359.548 203.513 359.598 203.989 359.565C204.12 359.565 204.317 359.565 204.497 359.548C204.547 359.532 204.596 359.516 204.662 359.499C205.138 359.401 205.597 359.253 206.057 359.105C206.106 359.089 206.139 359.089 206.171 359.073C206.204 359.056 206.204 359.04 206.253 359.023C206.418 358.925 206.598 358.843 206.762 358.761C207.041 358.613 207.468 358.4 207.763 358.17C207.829 358.088 207.911 357.973 207.976 357.907C208.108 357.776 208.255 357.645 208.387 357.514C208.534 357.366 208.682 357.136 208.846 357.005C209.142 356.545 209.421 356.086 209.683 355.594C209.732 355.512 209.765 355.446 209.798 355.397C209.847 355.233 209.88 355.085 209.913 354.97C209.962 354.79 210.11 354.412 210.208 354.084C210.208 354.051 210.208 353.969 210.208 353.772C210.208 353.477 210.241 353.181 210.241 352.87C210.241 352.673 210.274 352.344 210.241 352.065C210.225 352.033 210.192 351.983 210.176 351.901C210.028 351.327 209.88 350.785 209.716 350.228C209.716 350.211 209.7 350.195 209.683 350.178C209.535 349.932 209.421 349.67 209.273 349.44C209.125 349.194 208.961 348.964 208.813 348.734C208.797 348.718 208.781 348.701 208.764 348.685C208.436 348.357 208.108 348.029 207.763 347.7C207.714 347.651 207.698 347.635 207.665 347.618C207.599 347.569 207.55 347.536 207.484 347.487C207.32 347.389 207.172 347.274 207.008 347.192C206.746 347.028 206.401 346.913 206.155 346.732V346.699Z" fill="#BDE0FF"/>
<path d="M144.4 153.635H121.836C129.647 160.002 137.475 166.385 145.286 172.753C145.286 166.385 145.253 160.002 145.253 153.635H144.416H144.4Z" fill="#BDE0FF"/>
<path d="M86.2293 165.515C78.4673 161.068 68.0305 161.643 59.9731 165.007C59.4316 165.236 58.8901 165.483 58.365 165.745C58.2173 165.811 58.0696 165.893 57.9219 165.975C58.7096 166.024 59.53 165.909 60.3177 165.926C62.451 165.975 64.6007 166.221 66.6684 166.73C70.0489 167.567 73.1668 169.24 75.1196 172.211C76.416 174.196 77.1873 176.953 75.9565 179.152C74.3484 182.04 70.5249 182.336 67.6039 182.172C67.7844 182.155 68.5721 183.189 68.851 183.452C69.3926 183.977 69.9668 184.453 70.5904 184.863C72.2314 185.962 74.0859 186.668 76.0387 186.963C81.1914 187.735 87.3779 185.847 91.5133 182.713C94.1389 180.711 95.6322 177.823 94.582 174.541C93.3512 170.685 89.6426 167.435 86.2457 165.499L86.2293 165.515Z" fill="#BDE0FF"/>
<path d="M260.389 338.166C260.438 337.969 260.471 337.789 260.422 337.69C260.422 337.69 260.405 338.035 260.389 338.166Z" fill="#BDE0FF"/>
<path d="M163.832 328.631C163.881 328.435 163.914 328.254 163.865 328.156C163.865 328.156 163.848 328.5 163.832 328.631Z" fill="#BDE0FF"/>
<path d="M145.323 194.972C137.43 198.401 129.537 201.815 121.627 205.244L145.356 213.384C145.356 208.92 145.34 204.473 145.323 200.01C145.323 198.336 145.323 196.662 145.323 194.972Z" fill="#BDE0FF"/>
<path d="M308.716 320.312C308.716 320.312 308.667 320.23 308.65 320.148C308.503 319.574 308.355 319.032 308.191 318.474C308.191 318.458 308.174 318.441 308.158 318.425C308.01 318.179 307.895 317.916 307.748 317.686C307.6 317.44 307.436 317.21 307.288 316.981C307.272 316.964 307.255 316.948 307.239 316.931C306.911 316.603 306.582 316.275 306.238 315.93C306.189 315.881 306.172 315.865 306.14 315.848C306.074 315.799 306.025 315.766 305.959 315.717C305.795 315.619 305.647 315.504 305.483 315.422C305.221 315.258 304.876 315.143 304.63 314.962C304.088 314.798 303.547 314.65 303.005 314.503C302.972 314.503 302.972 314.503 302.956 314.503C302.956 314.503 302.956 314.503 302.923 314.503C302.677 314.503 302.431 314.47 302.168 314.47C301.922 314.47 301.66 314.47 301.413 314.47C301.364 314.47 301.036 314.519 300.888 314.536C300.823 314.536 300.757 314.568 300.757 314.568C300.576 314.618 300.38 314.65 300.199 314.716C299.92 314.798 299.658 314.897 299.379 314.979C298.607 315.225 299.543 314.897 299.575 314.897C299.264 314.831 298.394 315.537 298.099 315.734C298 315.799 297.409 316.374 297.836 315.914C298.279 315.438 297.672 316.078 297.606 316.144C297.491 316.259 297.032 316.62 296.786 316.915C296.769 316.964 296.737 317.03 296.687 317.128C296.556 317.325 296.425 317.522 296.31 317.719C296.162 317.965 296.047 318.228 295.9 318.458C295.9 318.49 295.883 318.49 295.867 318.507C295.719 318.966 295.571 319.409 295.457 319.885C295.424 320 295.407 320.246 295.374 320.378C295.374 320.427 295.374 320.492 295.374 320.542C295.342 320.985 295.358 321.444 295.374 321.904C295.374 321.986 295.374 322.019 295.374 322.068C295.374 322.084 295.374 322.101 295.374 322.133C295.424 322.33 295.457 322.511 295.506 322.708C295.604 323.085 295.686 323.791 295.949 324.07C295.719 323.528 295.703 323.463 295.883 323.873C295.932 323.955 295.965 324.037 296.014 324.119C296.096 324.283 296.195 324.447 296.293 324.611C296.441 324.858 296.605 325.087 296.753 325.317C296.835 325.448 296.868 325.498 296.851 325.514C297.147 325.826 297.639 326.203 297.803 326.367C297.819 326.384 297.82 326.4 297.836 326.417C298 326.515 298.148 326.646 298.312 326.745C298.476 326.843 298.837 327.122 299.149 327.286C299.182 327.286 299.247 327.286 299.362 327.335C299.641 327.418 299.904 327.516 300.183 327.598C300.462 327.68 300.741 327.729 301.036 327.795C301.512 327.811 301.988 327.861 302.464 327.828C302.595 327.828 302.792 327.828 302.972 327.811C303.022 327.795 303.071 327.779 303.136 327.762C303.612 327.664 304.072 327.516 304.531 327.368C304.581 327.352 304.613 327.352 304.646 327.335C304.679 327.319 304.679 327.303 304.728 327.286C304.892 327.188 305.073 327.122 305.237 327.024C305.516 326.876 305.943 326.663 306.238 326.433C306.304 326.351 306.386 326.236 306.451 326.17C306.583 326.039 306.73 325.908 306.861 325.777C307.009 325.629 307.157 325.399 307.321 325.268C307.616 324.808 307.895 324.349 308.158 323.857C308.207 323.774 308.24 323.709 308.273 323.66C308.322 323.496 308.355 323.348 308.388 323.233C308.437 323.052 308.585 322.675 308.683 322.347C308.683 322.314 308.683 322.232 308.683 322.035C308.683 321.74 308.716 321.428 308.716 321.132C308.716 320.936 308.749 320.607 308.716 320.328V320.312Z" fill="#BDE0FF"/>
<path d="M249.79 331.569C249.691 331.635 249.101 332.209 249.527 331.75C249.97 331.274 249.363 331.914 249.298 331.98C249.183 332.095 248.723 332.456 248.477 332.751C248.461 332.8 248.428 332.866 248.379 332.964C248.247 333.161 248.116 333.358 248.001 333.555C247.853 333.801 247.739 334.064 247.591 334.294C247.591 334.326 247.574 334.326 247.558 334.343C247.41 334.802 247.263 335.262 247.148 335.721C247.115 335.836 247.099 336.082 247.066 336.213C247.066 336.263 247.066 336.328 247.066 336.378C247.033 336.821 247.049 337.28 247.066 337.74C247.066 337.822 247.066 337.854 247.066 337.904C247.066 337.937 247.066 337.937 247.066 337.969C247.115 338.166 247.148 338.347 247.197 338.544C247.295 338.921 247.378 339.627 247.64 339.906C247.41 339.364 247.394 339.299 247.574 339.709C247.624 339.791 247.657 339.873 247.706 339.955C247.788 340.119 247.886 340.283 247.985 340.447C248.132 340.693 248.297 340.923 248.444 341.153C248.526 341.284 248.559 341.333 248.543 341.35C248.838 341.662 249.33 342.039 249.494 342.203C249.511 342.22 249.511 342.236 249.527 342.252C249.691 342.351 249.839 342.482 250.003 342.581C250.167 342.679 250.528 342.958 250.84 343.122C250.873 343.122 250.938 343.122 251.053 343.171C251.332 343.253 251.595 343.352 251.874 343.434C252.153 343.516 252.432 343.565 252.727 343.631C253.203 343.647 253.663 343.696 254.155 343.664C254.286 343.664 254.483 343.664 254.664 343.647C254.713 343.631 254.762 343.614 254.828 343.598C255.304 343.5 255.763 343.352 256.223 343.204C256.272 343.188 256.305 343.188 256.338 343.171C256.37 343.155 256.37 343.139 256.419 343.122C256.584 343.024 256.764 342.942 256.928 342.86C257.207 342.712 257.634 342.499 257.929 342.269C257.995 342.187 258.077 342.072 258.143 342.006C258.274 341.875 258.422 341.744 258.553 341.612C258.701 341.465 258.848 341.235 259.012 341.104C259.308 340.644 259.587 340.185 259.849 339.692C259.899 339.61 259.931 339.545 259.964 339.495C260.013 339.331 260.046 339.184 260.079 339.069C260.128 338.888 260.276 338.511 260.374 338.183C260.374 338.15 260.374 338.068 260.374 337.871C260.374 337.576 260.407 337.264 260.407 336.968C260.407 336.771 260.44 336.443 260.407 336.164C260.391 336.131 260.358 336.082 260.342 336C260.194 335.426 260.046 334.884 259.882 334.326C259.882 334.31 259.866 334.294 259.849 334.277C259.702 334.031 259.587 333.768 259.439 333.539C259.291 333.292 259.127 333.063 258.98 332.833C258.98 332.833 258.947 332.8 258.93 332.784C258.602 332.456 258.274 332.127 257.929 331.783C257.88 331.734 257.864 331.717 257.814 331.701C257.749 331.651 257.699 331.619 257.634 331.569C257.47 331.471 257.322 331.356 257.158 331.274C256.896 331.11 256.551 330.995 256.305 330.815C255.763 330.65 255.222 330.503 254.68 330.355C254.647 330.355 254.647 330.355 254.631 330.355C254.631 330.355 254.631 330.355 254.598 330.355C254.352 330.355 254.106 330.322 253.843 330.322C253.597 330.322 253.334 330.322 253.088 330.322C253.039 330.322 252.711 330.371 252.563 330.388C252.498 330.388 252.432 330.421 252.432 330.421C252.251 330.47 252.054 330.503 251.874 330.568C251.595 330.65 251.332 330.749 251.053 330.831C250.282 331.077 251.217 330.749 251.25 330.749C250.938 330.683 250.069 331.389 249.774 331.586L249.79 331.569Z" fill="#BDE0FF"/>
<path d="M313.821 302.704C313.854 299.143 313.87 295.664 313.772 292.201C313.624 286.77 310.129 283.471 308.028 281.502L307.88 281.354C307.634 281.125 307.388 280.895 307.158 280.665L304.254 277.744V274.643C305.731 274.626 307.06 274.593 308.209 274.544H308.406C314.543 274.544 319.532 269.556 319.532 263.418V186.996C319.532 185.487 319.532 183.977 319.564 182.467C319.597 178.644 319.63 174.672 319.466 170.701C318.038 136.732 297.394 105.57 266.855 91.2764H268.628C279.852 91.2764 289.682 88.8313 297.854 84.0231C308.619 77.6724 316.496 67.7607 318.908 57.5044C321.074 48.2819 317.53 37.5826 310.276 31.4944C305.993 27.9006 301.021 26.0791 295.458 26.0791C293.407 26.0791 291.29 26.3417 289.14 26.8504C288.943 24.1099 288.418 21.5171 287.581 19.0884C283.889 8.40542 274.256 1.66088 261.161 0.577814C260.111 0.495763 259.028 0.446533 257.961 0.446533C245.046 0.446533 233.953 6.64954 226.897 11.8351C222.072 15.3961 217.625 19.4658 213.654 23.9294C212.243 22.436 210.667 21.1561 208.977 20.1222C205.301 17.8576 200.985 16.7089 196.144 16.7089C194.372 16.7089 192.485 16.873 190.581 17.1848C181.014 18.7438 172.12 24.4217 163.423 34.5631C157.433 41.5374 151.886 49.8901 146.454 60.0972C143.353 65.9556 140.826 71.2889 138.742 76.4252C137.363 79.8221 138.003 83.7934 140.35 86.8456C138.873 88.7492 138.069 91.1123 138.069 93.623L138.167 138.423H110.336C105.675 138.423 101.442 141.508 99.8007 146.102C99.735 146.283 99.6858 146.463 99.6202 146.644C99.3576 146.349 99.1113 146.086 98.8487 145.823C94.6478 141.475 89.9547 137.733 84.8675 134.73C76.1866 129.594 66.4718 126.886 56.7735 126.886C52.4084 126.886 48.076 127.428 43.9078 128.511L43.5797 128.576C42.1848 128.888 37.9181 129.824 36.0966 134.09C35.2269 136.125 35.1612 138.275 35.8668 140.26C33.7335 141.311 31.7973 142.591 30.0907 144.068C27.5143 146.283 25.906 148.81 24.4455 151.091C24.1009 151.633 23.7398 152.191 23.3788 152.732C21.3603 155.67 19.2108 158.23 16.979 160.297C14.6816 162.431 12.6139 163.793 10.7595 164.465C10.6611 164.498 10.2507 164.564 10.2507 164.564C8.11741 164.974 3.68676 165.795 1.71755 169.979C1.02833 171.423 0.174974 174.361 2.09495 177.84C3.27648 179.989 4.96668 181.548 6.36154 182.845C6.60769 183.074 6.8375 183.288 7.05083 183.501C9.26619 185.667 11.5308 187.571 13.8118 189.146C18.3574 192.297 22.8538 194.053 27.186 194.381C27.0383 194.758 26.9233 195.169 26.8413 195.562C26.5295 197.007 25.9224 201.946 31.469 205.179C36.4249 208.067 42.0699 210.66 48.2237 212.875C55.9692 215.665 62.796 217.027 69.081 217.027C69.6226 217.027 70.1477 217.027 70.6892 216.994C77.6635 216.731 84.7691 214.664 91.2182 211.004C93.8602 209.511 96.5023 207.64 99.2263 205.359C99.2263 205.474 99.2263 205.573 99.2263 205.688C99.4069 210.446 102.607 214.812 106.972 216.321L138.364 227.086L138.397 242.512C138.397 244.76 138.381 247.025 138.348 249.289C138.299 253.9 138.249 258.676 138.43 263.254V263.467C138.43 269.605 143.435 274.577 149.556 274.577H163.176V282.864L155.349 290.692C154.856 291.184 153.675 292.333 153.675 292.333C152.477 293.498 151.23 294.712 150.015 296.025C146.487 299.816 146.586 304.197 146.651 306.839C146.651 307.151 146.651 308.267 146.651 308.267C144.239 309.563 142.089 311.319 140.432 313.338C134.442 320.624 133.589 330.831 138.299 338.708C142.286 345.387 149.392 349.374 157.318 349.374C158.68 349.374 160.075 349.243 161.42 349.013C171.349 347.225 178.946 337.953 179.094 327.418C178.996 319.902 175.205 313.092 168.936 309.055V308.612L180.276 297.272C182.163 295.418 185.33 292.3 185.445 286.852C185.478 285.555 185.478 284.259 185.478 282.963C186.085 288.46 190.844 292.907 196.423 292.907H196.866C202.938 292.628 207.681 287.738 207.681 281.765V274.593H211.455V295.582L199.689 307.348C199.41 307.627 199.065 307.939 198.622 308.349C196.144 310.597 192.419 313.978 192.091 319.147C191.943 321.526 191.992 323.84 192.042 326.072C192.058 327.073 192.091 328.09 192.091 329.075V334.228C190.056 335.458 188.284 336.968 186.823 338.757C180.834 346.043 179.98 356.25 184.69 364.127C188.678 370.806 195.783 374.793 203.693 374.793C205.071 374.793 206.45 374.662 207.795 374.432C217.723 372.644 225.321 363.372 225.469 352.837C225.354 345.009 221.12 337.822 214.359 333.916V324.218L217.297 321.297C221.268 317.375 225.764 312.911 230.015 308.53C232.394 306.068 233.641 303.163 233.723 299.898C233.723 299.586 233.723 299.274 233.723 298.946V299.849H234.314C234.248 302.507 234.15 306.938 237.727 310.745C239.385 312.517 241.075 314.191 242.913 315.996V317.982C240.632 319.262 238.597 320.952 237.005 322.905C231.016 330.191 230.162 340.382 234.872 348.275C238.86 354.954 245.965 358.941 253.891 358.941C255.253 358.941 256.648 358.81 257.994 358.58C267.922 356.792 275.52 347.52 275.667 336.985C275.569 329.387 271.696 322.527 265.296 318.507C265.329 316.505 265.329 314.404 265.231 312.255C266.035 312.419 266.855 312.501 267.709 312.501C274.059 312.501 278.835 307.775 278.835 301.506V274.643H281.87C281.854 277.17 281.871 279.861 281.985 282.585C282.232 287.787 285.809 291.102 288.008 293.137C288.303 293.416 288.599 293.695 288.878 293.957L291.52 296.599V301.965C289.107 303.262 286.958 305.018 285.3 307.036C279.31 314.322 278.457 324.529 283.167 332.406C287.155 339.085 294.26 343.073 302.186 343.073C303.548 343.073 304.943 342.941 306.289 342.712C316.217 340.923 323.815 331.651 323.962 321.116C323.864 313.649 320.09 306.839 313.854 302.802L313.821 302.704ZM145.273 79.0508C147.439 73.7012 149.983 68.4828 152.69 63.3792C157.236 54.8132 162.438 46.4932 168.772 39.1251C174.762 32.1508 182.376 25.636 191.73 24.1099C196.358 23.355 201.231 23.5848 205.317 26.0955C208.616 28.1304 210.963 31.2647 212.456 34.7928C212.653 35.2523 212.817 35.7118 212.997 36.1713C217.953 29.0001 224.123 22.633 231.098 17.4802C239.451 11.31 250.019 6.68237 260.603 7.56851C269.579 8.30697 277.899 12.4751 280.968 21.3694C282.773 26.6206 282.396 32.4954 281.214 37.9764C288.73 33.0862 298.199 30.5098 305.764 36.8605C310.982 41.242 313.624 49.2665 312.065 55.8798C309.883 65.1679 302.285 73.2417 294.293 77.9514C286.482 82.5462 277.604 84.2364 268.644 84.2364H149.244C149.244 84.2364 149.195 84.2364 149.179 84.2364C149.014 84.2364 148.85 84.22 148.686 84.1872C147.521 84.0395 146.651 83.4816 146.093 82.7103C145.24 81.6929 144.781 80.298 145.289 79.0508H145.273ZM99.2426 195.809C95.7636 199.255 92.0223 202.455 87.7393 204.883C82.4881 207.854 76.4655 209.741 70.4266 209.954C63.682 210.2 56.9047 208.526 50.6033 206.245C45.2536 204.325 39.9203 201.962 35.0137 199.091C34.2424 198.631 33.4875 198.073 33.7008 197.056C33.8649 196.285 34.5376 195.841 35.2761 195.792C37.0484 195.677 39.034 196.481 40.8556 196.58C42.513 196.662 44.1704 196.58 45.795 196.268C48.0104 195.841 50.8002 194.873 51.8504 192.674C52.835 190.59 51.5877 188.227 50.0287 186.799C45.0565 182.303 37.5244 185.06 32.0762 186.832C27.0875 188.457 21.9019 186.192 17.8322 183.353C15.7481 181.893 13.7954 180.235 11.9739 178.447C10.7923 177.282 9.08567 175.903 8.26516 174.426C6.75543 171.686 11.3831 171.637 12.8272 171.144C16.1913 169.996 19.1778 167.813 21.7706 165.417C24.5932 162.808 27.0383 159.821 29.2044 156.654C30.9439 154.111 32.3223 151.403 34.7018 149.352C38.4269 146.135 43.2515 144.56 48.076 143.936C48.9786 143.821 49.8976 143.723 50.8166 143.674C50.8986 143.674 51.1448 143.641 51.3909 143.608C50.3899 142.886 49.6187 141.803 48.552 141.097C47.0915 140.129 45.5161 139.489 43.8423 139.063C43.8423 139.063 43.8094 139.063 43.793 139.063C43.7438 139.063 43.7109 139.03 43.6616 139.03C43.6124 139.03 43.5797 138.997 43.5468 138.98C43.4976 138.964 43.4649 138.964 43.4156 138.931C43.4156 138.931 43.3992 138.915 43.3828 138.898C43.3007 138.849 43.2351 138.8 43.1859 138.734C42.5951 138.275 42.2505 137.602 42.5951 136.831C43.071 135.715 44.63 135.567 45.6638 135.305C57.8565 132.17 70.5579 134.386 81.3229 140.769C85.9013 143.477 90.1187 146.857 93.8109 150.681C97.4212 154.439 100.03 158.82 103.28 162.857C105.577 165.713 108.088 168.404 110.713 170.947C111.961 172.162 113.224 173.343 114.52 174.508C115.439 175.329 116.408 176.084 116.998 177.2C118.065 179.234 117.753 181.86 116.211 183.583C115.325 184.568 114.127 185.011 112.978 185.618C111.403 186.438 109.86 187.357 108.334 188.276C104.789 190.393 102.18 192.937 99.2426 195.809ZM305.025 335.705C298.806 336.821 292.488 334.228 289.189 328.73C285.891 323.217 286.711 316.308 290.716 311.434C292.685 309.038 295.507 307.414 298.543 306.675V293.613C296.984 292.054 295.409 290.478 293.85 288.919C291.963 287.032 289.157 285.047 289.025 282.191C288.796 277.334 288.976 272.427 289.025 267.554C288.96 267.554 288.91 267.554 288.845 267.554H271.844V301.457C271.844 306.741 263.639 306.741 263.639 301.457V267.554H249.608V301.014C250.921 302.327 252.234 303.639 253.547 304.952C255.352 306.757 258.027 308.661 258.191 311.385C258.404 315.176 258.273 319.016 258.223 322.839C258.388 322.888 258.568 322.921 258.732 322.987C264.64 325.219 268.578 330.667 268.677 337.034C268.578 343.877 263.704 350.375 256.796 351.622C250.576 352.738 244.259 350.145 240.96 344.648C237.662 339.134 238.482 332.226 242.486 327.352C244.39 325.038 247.081 323.413 249.986 322.659V313.042C247.606 310.696 245.194 308.382 242.913 305.937C241.026 303.918 241.42 301.424 241.42 298.864V267.57H226.749V294.729C226.749 296.386 226.798 298.043 226.749 299.701C226.7 301.293 226.093 302.507 225.01 303.623C219.233 309.596 213.26 315.405 207.369 321.28V338.544C207.762 338.658 208.156 338.724 208.55 338.872C214.458 341.104 218.396 346.552 218.495 352.919C218.396 359.762 213.522 366.26 206.614 367.507C200.394 368.623 194.077 366.03 190.778 360.533C187.48 355.019 188.3 348.111 192.304 343.237C194.06 341.087 196.505 339.577 199.18 338.757V329.108C199.18 325.957 198.983 322.757 199.18 319.606C199.361 316.685 202.823 314.257 204.743 312.337C209.354 307.725 213.949 303.131 218.56 298.519V267.586H200.723V281.797C200.723 284.095 198.836 285.802 196.62 285.9C194.405 285.998 192.518 283.947 192.518 281.797V267.586H178.487V275.677C178.487 279.352 178.569 283.045 178.487 286.721C178.421 289.559 176.764 290.921 174.91 292.776C170.594 297.092 166.278 301.408 161.962 305.723V313.42C161.962 313.42 162.11 313.453 162.192 313.485C168.099 315.717 172.038 321.165 172.136 327.532C172.038 334.375 167.164 340.874 160.255 342.121C154.036 343.237 147.718 340.644 144.42 335.147C141.121 329.633 141.942 322.724 145.946 317.85C147.915 315.455 150.738 313.83 153.773 313.092V307.824C153.773 305.313 153.396 302.852 155.25 300.866C156.908 299.094 158.696 297.42 160.403 295.713C163.701 292.415 167 289.116 170.282 285.834V267.619H149.638C147.406 267.619 145.536 265.732 145.536 263.517C145.536 263.418 145.536 263.32 145.536 263.221C145.257 256.362 145.503 249.437 145.486 242.561C145.486 235.751 145.453 228.941 145.437 222.13C144.748 221.901 144.059 221.655 143.353 221.425C131.997 217.536 120.658 213.63 109.302 209.741C106.332 208.723 104.806 203.768 108.317 202.241C109.909 201.552 111.517 200.863 113.109 200.157C123.858 195.497 134.606 190.836 145.339 186.176C145.339 185.241 145.339 184.322 145.339 183.386C144.042 182.336 142.762 181.286 141.466 180.235C130.143 170.997 118.803 161.758 107.48 152.519C104.625 150.189 107.087 145.512 110.385 145.512H145.257C145.24 133.861 145.207 122.226 145.191 110.575C145.191 104.93 145.175 99.3009 145.158 93.6722C145.158 92.4415 145.601 91.5061 146.29 90.8497C146.356 90.7841 146.422 90.7184 146.504 90.6528C147.16 89.9964 148.063 89.5697 149.261 89.5697H226.683C239.532 89.5697 252.086 92.2282 263.737 97.6435C292.176 110.886 311.163 139.834 312.475 171.079C312.705 176.395 312.541 181.762 312.541 187.095V263.517C312.541 265.732 310.654 267.619 308.439 267.619C308.34 267.619 308.258 267.619 308.159 267.619C304.533 267.767 300.89 267.75 297.247 267.701V280.764C298.904 282.421 300.562 284.078 302.219 285.736C304.188 287.705 306.699 289.461 306.781 292.48C306.912 297.354 306.83 302.244 306.781 307.118C306.847 307.151 306.929 307.151 306.994 307.184C312.902 309.416 316.84 314.864 316.939 321.231C316.84 328.074 311.967 334.572 305.058 335.82L305.025 335.705Z" fill="#BDE0FF"/>
<path d="M308.668 322.282C308.717 322.085 308.75 321.904 308.701 321.806C308.701 321.806 308.684 322.15 308.668 322.282Z" fill="#BDE0FF"/>
<path d="M304.301 210.397V182.648C304.301 176.116 304.498 169.536 303.481 163.054C298.968 133.877 277.668 109.163 249.262 100.827C248.556 100.63 247.867 100.45 247.161 100.269C261.865 109.016 271.35 125.606 271.35 145.397C271.35 173.261 247.539 195.037 222.546 195.037C213.192 195.037 204.364 193.298 196.865 188.851C192.04 186.504 186.083 187.21 181.915 191.099C179.224 193.61 177.796 196.974 177.681 200.387C177.533 204.572 179.634 208.494 182.9 211.119C183.95 211.956 185.574 213.367 188.02 215.747C189.907 217.568 191.088 220.013 191.712 222.688C194.469 234.487 185.903 246.335 173.792 246.598C166.604 246.762 159.975 243.07 156.955 237.113C155.774 234.783 154.641 232.239 153.607 229.039C153.607 234.881 153.624 240.707 153.64 246.549C153.64 250.799 153.657 255.049 153.673 259.299C154.494 259.316 155.314 259.348 156.118 259.348H304.301V210.414V210.397Z" fill="#BDE0FF"/>
<path d="M201.316 162.447C209.209 159.707 214.329 151.879 214.411 143.658C214.296 134.156 207.683 126.033 198.395 124.048C190.338 122.325 181.739 126.115 177.439 133.106C173.091 140.162 173.501 149.45 178.67 155.998C184.053 162.825 193.177 165.27 201.316 162.431V162.447ZM194.424 135.059C199.183 135.059 203.023 138.915 203.023 143.658C203.023 148.4 199.166 152.257 194.424 152.257C189.681 152.257 185.825 148.4 185.825 143.658C185.825 138.915 189.681 135.059 194.424 135.059Z" fill="#BDE0FF"/>
</svg>
