<svg width="814" height="95" viewBox="0 0 814 95" fill="none" xmlns="http://www.w3.org/2000/svg">
<g clip-path="url(#clip0_178_1237)">
<path fill-rule="evenodd" clip-rule="evenodd" d="M54.8693 0.4C55.4193 0.15 56.0193 0 56.6193 0C57.3893 0 58.1393 0.23 58.7493 0.69C66.2393 6.44 69.1293 15.86 65.6893 26.34C65.1793 27.91 64.0293 29.21 62.5093 29.87C60.6793 30.67 58.6993 31.13 56.3793 30.13C50.8093 26.85 49.6293 19.52 43.1493 18.89C41.7893 18.76 40.5893 19.66 39.9793 20.88C39.2893 22.25 39.4293 23.91 40.4493 25.06C47.1293 32.56 56.9193 36.97 61.9793 45.55C73.9993 65.93 54.1293 88.02 41.6493 92.51C3.81929 106.15 -12.5507 56.93 10.8493 54.67C11.5493 54.9 12.2493 55.14 12.9493 55.37C18.0193 59.36 20.2193 67.09 23.2193 73.32C24.1693 75.3 26.1493 76.61 28.3493 76.62C29.4293 76.62 30.3493 76.54 31.3593 76.34C33.0293 76.02 34.3693 74.78 35.0393 73.22C35.6993 71.68 35.6693 69.91 34.7693 68.49C25.7393 54.15 5.43929 48 12.9493 23.13C15.2993 15.35 19.2993 8.59 25.5693 4.91C34.4593 -0.31 45.6693 4.55 54.8793 0.41L54.8693 0.4ZM174.289 4.79C177.429 3.46 180.859 2.68 184.269 2.85C248.489 6.06 214.859 107.26 158.029 91.11C137.789 85.36 129.069 58.3 139.109 35.04C146.569 17.74 157.539 11.87 174.289 4.79ZM125.139 5.13C126.519 4.62 127.979 4.3 129.439 4.48C129.469 4.48 129.489 4.48 129.519 4.49C131.599 4.75 133.439 5.94 134.189 7.9C137.789 17.26 143.209 41.42 128.599 35.74C124.439 33.39 124.299 28.34 122.439 24.25C121.779 22.8 119.919 22.7 118.789 23.83C115.759 30.83 113.189 63 115.769 73.85C116.169 75.55 117.689 76.51 119.239 77.32C120.189 77.81 120.769 78.47 121.589 79.9C122.519 82.69 121.469 84.69 120.099 86.58C119.269 87.73 118.079 88.56 116.719 88.97C105.569 92.37 81.8793 97.04 78.4993 84.25C78.1193 82.82 78.4993 81.27 79.5993 80.28C82.3493 77.81 86.5593 76.72 87.9493 73.59C90.0493 57.7 92.1593 41.81 94.2593 25.93C93.0493 23.1 89.9693 24.28 88.7893 27.13C87.3093 30.71 85.3393 34.2 82.4993 35.97C81.9493 36.31 81.3193 36.49 80.6793 36.6C80.3493 36.65 80.0293 36.71 79.6993 36.76C78.2293 37 76.6693 36.86 75.3893 36.08C74.6893 35.65 74.1893 35.17 73.5793 34.23C73.3293 33.84 73.0593 33.46 72.7793 33.09C66.6293 24.84 76.4293 8.15 82.3293 5.6C92.7393 3.43 113.479 9.47 125.129 5.13H125.139ZM229.349 5.04C230.399 4.52 231.529 4.19 232.689 4.16C274.979 3 325.569 3.28 288.079 44.43C287.839 44.69 287.689 45.05 287.689 45.41C287.689 45.93 287.979 46.41 288.429 46.68C297.119 51.82 296.239 61.31 297.799 73.03C298.019 74.7 299.129 76.1 300.679 76.77C302.189 77.42 303.939 77.28 305.289 76.32C329.749 58.93 332.239 30.68 348.669 6.31C387.519 -4.46 379.969 44.57 389.319 70.79C391.739 73.37 394.159 75.95 396.579 78.54C398.529 80.62 398.979 83.71 397.709 86.26C396.829 88.01 395.249 89.31 393.349 89.77C380.439 92.88 359.239 96.06 353.879 86.79C353.659 86.41 353.529 85.99 353.449 85.57C353.089 83.79 353.689 81.96 355.029 80.73C356.509 79.37 357.999 78.01 359.479 76.65C360.529 75.69 360.759 74.12 360.029 72.89C359.499 72.01 358.569 71.47 357.549 71.41C350.629 70.96 341.049 69.26 335.989 71.83C335.559 72.05 335.179 72.36 334.829 72.7C334.119 73.39 334.279 73.33 334.059 75C333.999 75.45 334.059 75.92 334.269 76.33C334.519 76.83 334.939 77.21 335.459 77.41C335.939 77.59 336.409 77.77 336.889 77.95C338.959 78.73 340.429 80.59 340.699 82.78C340.699 82.83 340.709 82.87 340.719 82.92C340.869 84.15 340.609 85.39 339.969 86.46C339.249 87.66 338.129 88.55 336.759 88.84C320.609 92.21 275.729 90.47 270.859 84.12C265.809 77.53 267.189 63.93 264.069 55.39C263.579 54.04 262.279 53.2 260.849 53.05C259.979 52.96 259.099 52.88 258.229 52.79C257.109 52.68 256.139 53.56 256.139 54.68C255.939 59.97 255.749 65.26 255.549 70.55C255.479 72.5 256.219 74.39 257.599 75.77C258.009 76.18 258.429 76.59 258.839 77.01C260.249 78.42 261.169 80.39 260.669 82.32C260.559 82.74 260.429 83.09 260.259 83.42C259.539 84.86 258.119 85.84 256.569 86.27C244.159 89.74 223.299 90.55 216.119 81.93C215.119 80.73 214.849 79.05 215.459 77.62C217.209 73.51 220.669 75.31 223.199 71.52C226.389 66.74 232.769 30.94 230.749 21.26C230.519 20.17 229.729 19.33 228.799 18.71C228.349 18.41 227.899 18.11 227.459 17.81C225.279 16.36 224.089 13.81 224.379 11.21C224.409 10.95 224.439 10.68 224.469 10.42C224.559 9.58 224.779 8.74 225.259 8.04C226.389 6.4 227.629 5.92 229.339 5.07L229.349 5.04ZM430.979 6.38C434.509 5.02 438.239 4.12 442.009 4.32C446.209 4.55 449.789 5.08 453.299 5.72C459.969 6.95 466.209 10.53 469.009 16.7C472.529 24.43 474.389 34.2 467.119 39.25C465.259 40.68 463.169 41.57 460.809 40.65C453.759 39.4 451.169 32.02 447.599 26.64C446.359 24.77 444.079 24.01 441.849 24.33C441.399 24.39 440.939 24.46 440.489 24.52C428.689 30.03 426.679 55.22 433.059 67.84C434.049 69.79 436.159 70.78 438.349 70.78H441.369C443.059 70.78 444.689 70.17 445.969 69.06C449.939 65.61 453.909 62.15 457.879 58.7C459.269 57.49 461.179 57.07 462.949 57.57C464.279 57.95 465.409 58.82 466.119 60C466.299 60.29 466.469 60.59 466.649 60.88C466.959 61.4 467.209 61.97 467.359 62.55C474.839 91.64 427.459 98.55 411.039 86.89C389.609 71.66 399.829 27.27 415.949 14C420.609 10.16 425.379 8.52 430.969 6.36L430.979 6.38ZM489.469 6.63C491.849 5.95 494.309 5.56 496.779 5.64C502.369 5.8 507.699 6.5 512.389 7.5C514.759 8.01 516.609 9.84 517.299 12.16C517.909 14.21 517.549 16.44 516.349 18.2C512.449 23.91 508.989 29.95 509.699 37.85C509.769 38.65 510.459 39.24 511.269 39.24H521.489C522.089 39.24 522.619 38.86 522.799 38.29C525.649 29.04 522.389 22.73 521.299 14.57C521.129 13.29 521.349 11.97 521.989 10.84C522.549 9.85 523.099 9.26 524.599 8.4C530.609 4.36 544.469 5.66 551.409 8.45C553.159 9.15 554.189 10.86 554.449 12.73C554.629 14.02 554.479 15.37 553.749 16.44C551.989 19.02 549.599 20.49 548.429 23.12C544.419 32.13 542.219 67.57 543.519 75.69C544.689 76.39 545.859 77.09 547.019 77.79C549.119 75.92 551.229 74.05 553.329 72.18C560.809 60.97 568.279 49.75 575.759 38.54C581.539 28.73 582.919 16.12 590.149 8.04C591.209 6.86 592.769 6.22 594.359 6.22C626.669 6.15 618.949 44.92 628.329 70.08C630.339 75.47 635.099 76.1 637.269 81.02C638.089 82.88 637.399 85.03 635.659 86.08C627.159 91.21 604.549 95.04 596.789 88.3C595.759 87.62 595.169 87.03 594.709 86.33C593.569 84.6 593.749 82.27 595.079 80.68C597.659 77.61 601.049 75.59 600.529 72.37C600.439 71.82 599.929 71.46 599.369 71.42C592.199 70.95 581.679 69.54 575.699 71.9C575.299 72.06 575.059 72.45 575.059 72.88V75.01C575.059 75.44 575.249 75.84 575.589 76.11C576.649 76.96 577.709 77.8 578.769 78.65C580.799 80.28 581.969 83.05 580.509 85.2C573.189 95.97 546.369 85.67 545.629 86.2C538.809 91.01 517.519 94.06 512.309 84.96C511.319 83.22 512.029 81.12 513.229 79.52C517.179 74.26 521.389 66.97 520.709 59.27C520.459 56.42 517.819 54.51 514.969 54.7C513.349 54.81 511.919 55.03 510.599 55.37C508.309 55.98 506.969 58.19 506.789 60.55C506.449 64.95 506.109 69.35 505.769 73.75C505.709 74.57 505.759 75.41 506.109 76.15C507.119 78.26 508.869 79.34 509.639 82.73C509.839 83.62 509.699 84.55 509.359 85.39C508.799 86.8 507.669 87.93 506.219 88.35C497.839 90.76 485.669 90.85 476.589 89.05C474.579 88.65 472.989 87.2 472.229 85.3C471.259 82.88 471.829 80.1 473.219 77.89C480.409 66.48 490.429 36.75 484.649 22.43C483.699 21.48 482.759 20.54 481.809 19.59C480.489 18.27 479.669 16.46 479.909 14.61C480.189 12.47 480.819 11.47 481.789 10.25C482.739 9.06 484.049 8.18 485.509 7.77C486.829 7.39 488.159 7.01 489.479 6.64L489.469 6.63ZM264.769 17.95C262.969 17.69 261.219 18.61 260.679 20.35C259.119 25.41 257.649 34.28 258.999 38.06C259.289 38.88 260.159 39.25 261.039 39.25C261.519 39.25 261.999 39.14 262.429 38.92C262.699 38.78 262.969 38.65 263.239 38.52C264.989 37.65 266.289 36.08 266.819 34.2C267.959 30.1 268.929 25.87 268.219 21.11C268.139 20.59 267.939 20.1 267.649 19.66C267.039 18.74 266.069 18.13 264.969 17.97C264.909 17.97 264.849 17.95 264.789 17.94L264.769 17.95ZM182.899 20.15C180.909 19.82 178.839 20.34 177.629 21.96C169.919 32.21 159.329 63.98 170.849 74C172.349 75.3 174.549 75.29 175.939 73.87C184.869 64.72 195.459 28.39 183.969 20.33C183.609 20.27 183.259 20.21 182.899 20.15ZM352.859 37.85C352.439 37.85 352.059 38.08 351.849 38.45C348.939 43.68 345.449 48.18 343.889 54.84C343.809 55.17 343.909 55.52 344.159 55.76C344.359 55.96 344.639 56.07 344.919 56.05C348.769 55.85 352.629 55.64 356.479 55.44C357.219 55.4 357.799 54.8 357.789 54.06C357.669 47.59 355.999 43.04 353.889 38.5C353.699 38.1 353.299 37.85 352.859 37.85ZM593.279 38.55C592.849 38.55 592.459 38.79 592.269 39.17C589.749 44.2 587.239 49.24 584.719 54.27C584.469 54.78 584.829 55.37 585.399 55.37C585.509 55.37 585.619 55.39 585.719 55.44C588.879 56.81 594.509 56.12 597.399 55.01C597.889 54.82 598.179 54.34 598.169 53.81C598.069 47.48 596.349 43.48 594.279 39.18C594.089 38.79 593.699 38.54 593.269 38.54L593.279 38.55Z" fill="#08265F"/>
<path fill-rule="evenodd" clip-rule="evenodd" d="M666.659 76.5601C668.759 74.6901 670.869 72.8201 672.969 70.9501C680.449 59.7401 687.919 48.5201 695.399 37.3101C701.179 27.5001 702.559 14.8901 709.789 6.81009C710.849 5.63009 712.409 4.99008 713.999 4.99008C746.309 4.92008 738.589 43.6901 747.969 68.8501C749.969 74.2201 754.699 74.8601 756.879 79.7301C757.719 81.6001 757.049 83.7901 755.299 84.8501C746.809 89.9801 724.189 93.8201 716.429 87.0701C715.439 86.4101 714.849 85.8401 714.389 85.1601C713.189 83.3801 713.369 81.0401 714.759 79.4001C717.319 76.3701 720.639 74.3701 720.179 71.2001C720.099 70.6301 719.589 70.2201 719.019 70.1801C711.849 69.7101 701.329 68.3001 695.349 70.6601C694.949 70.8201 694.709 71.2101 694.709 71.6401V73.7701C694.709 74.2001 694.899 74.6001 695.239 74.8701C696.549 75.9101 697.849 76.9601 699.159 78.0001C700.939 79.4201 701.469 82.0001 700.199 83.9001C694.419 92.5601 676.159 87.7701 668.599 85.7201C664.469 84.6001 663.309 79.2501 666.649 76.5801C666.669 76.5601 666.679 76.5601 666.679 76.5601H666.659ZM712.909 37.3101C712.479 37.3101 712.089 37.5501 711.899 37.9301C709.379 42.9601 706.869 48.0001 704.349 53.0301C704.099 53.5401 704.459 54.1301 705.029 54.1301C705.139 54.1301 705.249 54.1501 705.349 54.2001C708.509 55.5701 714.139 54.8801 717.029 53.7701C717.519 53.5801 717.809 53.1001 717.799 52.5701C717.699 46.2401 715.979 42.2401 713.909 37.9401C713.719 37.5501 713.329 37.3001 712.899 37.3001L712.909 37.3101Z" fill="#08265F" stroke="#1F2C5D" stroke-width="2"/>
<path fill-rule="evenodd" clip-rule="evenodd" d="M776.93 19.7101C776.53 18.0101 773.05 19.2101 771.5 18.4101C770.55 17.9201 769.97 17.2601 769.15 15.8301C768.22 13.0401 769.27 11.0401 770.64 9.15009C771.47 8.00009 772.66 7.17009 774.02 6.76009C785.17 3.36009 808.86 -1.30991 812.24 11.4801C812.62 12.9101 812.24 14.4601 811.14 15.4501C808.39 17.9201 804.18 19.0101 802.79 22.1401L802.64 22.2201C799.61 29.2201 797.04 61.3901 799.62 72.2401C800.02 73.9401 801.54 74.9001 803.09 75.7101C804.04 76.2001 804.62 76.8601 805.44 78.2901C806.37 81.0801 805.32 83.0801 803.95 84.9701C803.12 86.1201 801.93 86.9501 800.57 87.3601C789.42 90.7601 765.73 95.4301 762.35 82.6401C761.97 81.2101 762.35 79.6601 763.45 78.6701C766.2 76.2001 770.41 75.1101 771.8 71.9801C773.9 56.0901 776.01 40.2001 778.11 24.3201C778.11 24.3201 779.53 21.4501 776.93 19.7101Z" fill="#08265F" stroke="#1F2C5D" stroke-width="2"/>
</g>
<defs>
<clipPath id="clip0_178_1237">
<rect width="813.37" height="94.9" fill="white"/>
</clipPath>
</defs>
</svg>
